<?xml version="1.0" standalone="no"?>
<!DOCTYPE svg PUBLIC "-//W3C//DTD SVG 20010904//EN"
 "http://www.w3.org/TR/2001/REC-SVG-20010904/DTD/svg10.dtd">
<svg version="1.0" xmlns="http://www.w3.org/2000/svg"
 width="420.000000pt" height="420.000000pt" viewBox="0 0 420.000000 420.000000"
 preserveAspectRatio="xMidYMid meet">
<metadata>
Created by potrace 1.14, written by Peter Selinger 2001-2017
</metadata>
<g transform="translate(0.000000,420.000000) scale(0.100000,-0.100000)"
fill="#000000" stroke="none">
<path d="M1605 3305 c-146 -28 -289 -108 -405 -226 -39 -40 -70 -78 -70 -84 0
-7 -7 -18 -14 -25 -24 -19 -67 -120 -81 -191 -23 -112 -21 -249 5 -384 5 -27
12 -64 15 -81 l5 -32 -36 13 c-47 16 -68 10 -99 -26 -21 -26 -24 -38 -21 -97
2 -60 14 -101 48 -167 6 -11 33 -50 61 -87 60 -80 92 -96 143 -72 42 20 82 7
107 -34 20 -33 120 -138 167 -175 43 -33 39 -36 -79 -67 -177 -46 -291 -111
-291 -168 0 -10 -23 -30 -60 -50 -61 -33 -84 -60 -75 -84 4 -9 -7 -20 -28 -30
-83 -40 -217 -142 -217 -165 0 -5 -8 -18 -19 -29 -23 -25 -46 -75 -62 -134
-16 -57 -13 -48 -28 -100 -7 -25 -15 -53 -17 -63 -2 -10 -5 -26 -8 -35 -7 -23
-15 -69 -21 -122 -3 -25 -8 -52 -10 -60 -2 -8 -7 -35 -10 -60 -3 -25 -8 -52
-10 -60 -2 -8 -7 -33 -10 -55 -3 -23 -7 -52 -10 -65 -3 -13 -7 -40 -10 -60 -3
-20 -7 -46 -10 -59 -2 -13 -7 -49 -11 -80 -3 -31 -8 -64 -10 -73 -3 -17 21
-18 382 -18 l384 0 0 25 c0 14 5 25 10 25 6 0 10 -11 10 -25 l0 -25 815 0
c645 0 815 3 816 13 1 6 3 32 4 57 4 69 24 346 30 425 2 22 6 114 9 205 3 91
9 183 13 205 4 22 7 43 7 47 2 23 18 13 47 -29 32 -47 69 -91 117 -140 32 -32
90 -100 127 -148 59 -76 174 -196 218 -227 31 -23 87 -55 97 -56 3 0 18 -6 35
-12 16 -6 64 -14 105 -17 179 -13 329 84 385 247 1 3 4 12 7 20 36 99 35 170
-7 465 -3 17 -12 82 -21 145 -20 145 -68 368 -100 468 -29 89 -61 143 -114
192 -32 30 -41 47 -59 124 -12 49 -21 89 -19 90 41 24 96 63 106 77 7 10 19
25 27 33 8 8 15 19 15 25 0 6 4 11 10 11 5 0 12 11 16 25 3 14 10 25 14 25 4
0 13 13 20 30 7 16 21 40 31 52 23 28 26 32 64 83 16 22 40 51 52 65 13 14 23
29 23 33 0 5 12 23 26 40 19 22 24 37 19 56 -8 34 -40 61 -68 56 -18 -4 -84
-67 -115 -110 -66 -93 -89 -118 -96 -106 -4 5 -3 11 2 13 8 3 152 214 152 223
0 3 16 25 35 51 19 25 35 52 35 60 0 8 5 14 10 14 17 0 11 56 -9 78 -25 29
-71 29 -98 0 -29 -32 -93 -126 -93 -136 0 -5 -9 -17 -20 -27 -11 -10 -20 -24
-20 -31 0 -7 -3 -14 -7 -16 -10 -4 -53 -65 -53 -73 0 -8 -27 -35 -34 -35 -6 0
20 52 47 95 85 137 107 174 107 183 0 7 5 12 11 12 5 0 8 4 5 9 -4 5 -3 11 2
13 12 5 62 108 62 127 0 10 -9 28 -20 41 -11 13 -20 20 -20 16 0 -4 -8 -2 -18
3 -27 14 -69 -17 -102 -76 -15 -26 -43 -75 -62 -108 -19 -33 -44 -76 -54 -95
-10 -19 -21 -37 -24 -40 -10 -10 -31 -45 -36 -62 -3 -9 -12 -19 -20 -22 -18
-7 -18 -8 6 42 11 22 20 45 20 50 0 5 7 15 15 22 8 7 12 16 9 21 -3 5 -1 9 3
9 9 0 43 72 43 90 0 6 5 10 10 10 6 0 10 9 10 20 0 11 3 20 8 20 4 0 12 16 18
35 14 44 0 75 -39 88 -42 14 -68 -3 -96 -59 -13 -27 -32 -61 -42 -75 -10 -14
-16 -29 -12 -33 3 -3 0 -6 -7 -6 -7 0 -11 -2 -8 -5 9 -9 -103 -222 -140 -267
-14 -16 -16 -16 -33 6 -10 12 -23 44 -30 70 -10 41 -54 99 -77 102 -4 0 -24 4
-45 8 -28 6 -43 4 -62 -8 -43 -28 -41 -56 8 -129 51 -74 60 -116 53 -247 -4
-93 22 -226 58 -297 31 -62 32 -70 7 -78 -18 -5 -20 -16 -20 -125 0 -115 0
-120 -27 -154 -28 -34 -30 -42 -38 -106 -2 -19 -5 -36 -5 -38 -1 -1 -14 10
-29 25 -26 25 -98 90 -162 144 -18 15 -75 46 -75 40 0 0 -20 5 -45 13 -38 11
-90 13 -110 6 -3 -1 -8 -2 -11 -2 -8 1 -135 -33 -163 -44 -16 -6 -18 -4 -13
10 10 26 -17 30 -81 12 -69 -19 -104 -13 -99 18 1 11 6 27 10 34 5 6 6 12 2
12 -3 0 -1 8 4 18 6 11 13 41 17 68 10 79 19 93 52 88 20 -3 34 1 48 17 10 11
18 23 17 25 -2 2 -3 5 -2 7 25 82 30 275 9 338 -24 71 -76 109 -107 78 -7 -7
-12 -1 -17 21 -7 37 2 80 16 80 13 0 4 78 -10 92 -5 5 -25 11 -43 12 -32 2
-35 6 -61 77 -32 87 -42 107 -85 176 -35 57 -126 149 -155 159 -10 3 -18 9
-18 13 0 4 -28 22 -62 39 -78 38 -138 63 -138 56 0 -3 -8 0 -17 5 -48 25 -214
34 -308 16z"/>
</g>
</svg>
